<svg xmlns="http://www.w3.org/2000/svg" xmlns:xlink="http://www.w3.org/1999/xlink" viewBox="0 0 672.43 158">
  <defs>
    <style>
      .cls-1 {
        fill: none;
      }

      .cls-2 {
        fill: #1d1d1b;
      }

      .cls-3,
      .cls-6 {
        isolation: isolate;
      }

      .cls-4 {
        fill: url(#linear-gradient);
      }

      .cls-5 {
        fill: url(#linear-gradient-2);
      }

      .cls-6 {
        opacity: 0.33;
      }

      .cls-7 {
        clip-path: url(#clip-path);
      }
    </style>
    <linearGradient id="linear-gradient" x1="106.92" y1="457.45" x2="241.34" y2="457.45"
      gradientTransform="matrix(1, 0, 0, -1, 0, 536.4)" gradientUnits="userSpaceOnUse">
      <stop offset="0" stop-color="#fe4c50" />
      <stop offset="1" stop-color="#f0175d" />
    </linearGradient>
    <linearGradient id="linear-gradient-2" x1="0" y1="457.45" x2="150.35" y2="457.45" xlink:href="#linear-gradient" />
    <clipPath id="clip-path">
      <rect class="cls-1" x="70.92" y="118.1" width="5" height="6.4" />
    </clipPath>
  </defs>
  <g id="Layer_2" data-name="Layer 2">
    <g id="Layer_1-2" data-name="Layer 1">
      <path class="cls-2"
        d="M341.82,31.8V5.6a5.55,5.55,0,0,0-5.5-5.5H224.82a5.48,5.48,0,0,0-5.5,5.5V152.3a5.55,5.55,0,0,0,5.5,5.5h111.5a5.48,5.48,0,0,0,5.5-5.5V126.1a5.55,5.55,0,0,0-5.5-5.5h-74.2a5.55,5.55,0,0,1-5.5-5.5V102.8a5.55,5.55,0,0,1,5.5-5.5H313a5.48,5.48,0,0,0,5.5-5.5V65.6a5.55,5.55,0,0,0-5.5-5.5h-50.9a5.55,5.55,0,0,1-5.5-5.5V42.3a5.55,5.55,0,0,1,5.5-5.5h74.2a4.82,4.82,0,0,0,5.5-5" />
      <path class="cls-2"
        d="M625.62,79l45.9-70.4a5.49,5.49,0,0,0-4.6-8.5h-31.3A5.32,5.32,0,0,0,631,2.6l-27.6,42.3L575.82,2.6a5.32,5.32,0,0,0-4.6-2.5h-31.3a5.47,5.47,0,0,0-4.6,8.5L581.22,79l-45.9,70.4a5.47,5.47,0,0,0,4.6,8.5h31.3a5.32,5.32,0,0,0,4.6-2.5l27.6-42.3L631,155.4a5.45,5.45,0,0,0,4.6,2.5h31.3a5.47,5.47,0,0,0,4.6-8.5Z" />
      <path class="cls-2"
        d="M518.62,157.9h-24.4a6.38,6.38,0,0,1-6.4-6.4V6.5a6.38,6.38,0,0,1,6.4-6.4h24.4a6.47,6.47,0,0,1,6.5,6.4v145a6.4,6.4,0,0,1-6.5,6.4" />
      <path class="cls-2"
        d="M473,.1H356.62a5.48,5.48,0,0,0-5.5,5.5V31.8a5.55,5.55,0,0,0,5.5,5.5h39.6V152.5a5.55,5.55,0,0,0,5.5,5.5H428a5.48,5.48,0,0,0,5.5-5.5V37.3h39.6a5.48,5.48,0,0,0,5.5-5.5V5.6A5.64,5.64,0,0,0,473,.1" />
      <g class="cls-3">
        <path id="SVGID" class="cls-4"
          d="M206.92.1a5.56,5.56,0,0,0-5,3.1L167.42,77a5.32,5.32,0,0,0-.2,4.1,176.07,176.07,0,0,1,6.9,24.2l-8.2,2.8s-2.1-6.2-6.4-5.3c-.2,0-.3.1-.5.2-2.9,1-3.5,4.1-3.5,6.3a13.52,13.52,0,0,0,.2,2.4l-7.8,2.7h0a157.15,157.15,0,0,0-10.6-37.8h0l-9.8-21-20.6,43.9,25.8,55.2a5.54,5.54,0,0,0,5,3.2h30.1a5.65,5.65,0,0,0,5-3.2l68-146.9a5.51,5.51,0,0,0-5-7.8h-28.9Z" />
        <path id="SVGID-2" data-name="SVGID" class="cls-5"
          d="M115.92.1a5.56,5.56,0,0,0-5,3.1L76.62,76.6a5.21,5.21,0,0,0-.1,4.4c1.6,3.7,3.2,7.9,4.8,12.3,0,.1.1.2.1.4a212.16,212.16,0,0,1,7.4,24.4.37.37,0,0,0,.1.3h0a15.52,15.52,0,0,1,.4,2.1l-8.1,2.8s-2.1-6.2-6.4-5.3c-.2,0-.3.1-.5.1a4.18,4.18,0,0,0-1.8,1.1c-.2.2-.3.4-.5.6s-.1.2-.2.3a8.65,8.65,0,0,0-.7,1.7c-.1.2-.1.5-.2.7s-.1.5-.1.7v1.2a15,15,0,0,0,.2,2.4l-7.8,2.7h0a158.44,158.44,0,0,0-10.6-37.8h0l-13.1-28a5.54,5.54,0,0,0-5-3.2h-29a5.51,5.51,0,0,0-5,7.8l40.4,86.4a5.54,5.54,0,0,0,5,3.2h30.2a5.48,5.48,0,0,0,5-3.2l25.8-55.2,20.6-43.9,22.3-47.8a5.47,5.47,0,0,0-5-7.8h-28.9Z" />
        <g class="cls-6">
          <path d="M94,116.7l-5,1.7a.37.37,0,0,0-.1-.3,206.35,206.35,0,0,0-7.4-24.4,105.9,105.9,0,0,0,12.5,23" />
        </g>
        <g class="cls-6">
          <g class="cls-7">
            <path
              d="M75.82,122.8l-5,1.7v-1.2c0-.2.1-.5.1-.7a2.54,2.54,0,0,1,.2-.7,12.2,12.2,0,0,1,.7-1.7c.1-.1.1-.2.2-.3a2.65,2.65,0,0,1,.5-.6,4.58,4.58,0,0,1,1.8-1.1c.1,0,.2,0,.2-.1h.3a9,9,0,0,0,1,4.7" />
          </g>
        </g>
        <g class="cls-6">
          <path d="M160.52,107.7l-5,1.7c0-2.2.6-5.3,3.5-6.3a.35.35,0,0,0,.2-.1h.3a8.66,8.66,0,0,0,1,4.7" />
        </g>
        <g class="cls-6">
          <path
            d="M167.22,81.3c.2.7.5,1.4.7,2.1l.9,2.7a.35.35,0,0,0,.1.2c.4,1.1.7,2.2,1.1,3.3s.7,2.3,1,3.4c.2.6.3,1.1.5,1.7s.3,1.1.5,1.6a46.41,46.41,0,0,1,1.2,4.7,38.23,38.23,0,0,1,.9,4.4h0v.1l2.8-.8L167,80.5Z" />
        </g>
      </g>
    </g>
  </g>
</svg>